<?xml version="1.0" encoding="iso-8859-1"?>
<!-- Generator: Adobe Illustrator 16.0.3, SVG Export Plug-In . SVG Version: 6.00 Build 0)  -->
<!DOCTYPE svg PUBLIC "-//W3C//DTD SVG 1.1//EN" "http://www.w3.org/Graphics/SVG/1.1/DTD/svg11.dtd">
<svg version="1.1" xmlns="http://www.w3.org/2000/svg" xmlns:xlink="http://www.w3.org/1999/xlink" x="0px" y="0px" width="50px"
	 height="50px" viewBox="0 0 50 50" style="enable-background:new 0 0 50 50;" xml:space="preserve">
<g id="&#x30EC;&#x30A4;&#x30E4;&#x30FC;_2">
	<path d="M50,46c0,2.209-1.791,4-4,4H4c-2.209,0-4-1.791-4-4V4c0-2.209,1.791-4,4-4h42c2.209,0,4,1.791,4,4V46z"/>
</g>
<g id="&#x30EC;&#x30A4;&#x30E4;&#x30FC;_1">
	<path style="fill:#FFFFFF;" d="M32.071,25l12.728-12.728c0.781-0.781,0.781-2.048,0-2.829l-4.243-4.243
		c-0.78-0.781-2.047-0.781-2.828,0L25,17.929L12.272,5.201c-0.781-0.781-2.048-0.781-2.829,0L5.201,9.444
		c-0.781,0.78-0.781,2.047,0,2.828L17.929,25L5.2,37.729c-0.78,0.78-0.78,2.047,0,2.828l4.243,4.242
		c0.781,0.781,2.048,0.781,2.829,0L25,32.071L37.729,44.8c0.78,0.78,2.047,0.78,2.828,0l4.242-4.243
		c0.781-0.781,0.781-2.048,0-2.829L32.071,25z"/>
</g>
</svg>
