<?xml version="1.0" encoding="iso-8859-1"?>
<!-- Generator: Adobe Illustrator 16.0.3, SVG Export Plug-In . SVG Version: 6.00 Build 0)  -->
<!DOCTYPE svg PUBLIC "-//W3C//DTD SVG 1.1//EN" "http://www.w3.org/Graphics/SVG/1.1/DTD/svg11.dtd">
<svg version="1.1" xmlns="http://www.w3.org/2000/svg" xmlns:xlink="http://www.w3.org/1999/xlink" x="0px" y="0px" width="60px"
	 height="60px" viewBox="0 0 60 60" style="enable-background:new 0 0 60 60;" xml:space="preserve">
<g id="bg">
	<rect style="fill:#ECF0F1;" width="60" height="60"/>
</g>
<g id="&#x30AC;&#x30A4;&#x30C9;">
</g>
<g id="&#x30EC;&#x30A4;&#x30E4;&#x30FC;_4" style="display:none;">
	<g style="display:inline;">
		<polygon style="fill:#C7CBCC;" points="30,10 11,28 23,28 23,50 37,50 37,28 49,28 		"/>
	</g>
</g>
<g id="&#x30EC;&#x30A4;&#x30E4;&#x30FC;_1">
	<path style="fill:#FAFEFF;" d="M30,13.739L41.887,25H37h-3v3v19h-8V28v-3h-3h-4.886L30,13.739 M30,10L11,28h12v22h14V28h12L30,10
		L30,10z"/>
</g>
<g id="&#x30EC;&#x30A4;&#x30E4;&#x30FC;_1&#x306E;&#x30B3;&#x30D4;&#x30FC;_2">
	<path style="fill:#969899;" d="M37,50V28l-3-3v3v19L37,50z M26,47V28v-3l-3,3v22L26,47z"/>
</g>
<g id="&#x30EC;&#x30A4;&#x30E4;&#x30FC;_1&#x306E;&#x30B3;&#x30D4;&#x30FC;">
	<path style="fill:#4A4D4D;" d="M30,13.739L41.887,25L49,28L30,10l0,0L11,28l7.114-3L30,13.739"/>
</g>
</svg>
